<svg xmlns="http://www.w3.org/2000/svg" viewBox="0 0 32 32" fill="none">
  <!-- Dark background circle -->
  <circle cx="16" cy="16" r="16" fill="#0d1117"/>
  
  <!-- GitHub octocat simplified -->
  <path d="M16 6c-5.5 0-10 4.5-10 10 0 4.4 2.9 8.2 6.9 9.5.5.1.7-.2.7-.5v-1.7c-2.8.6-3.4-1.4-3.4-1.4-.5-1.2-1.1-1.5-1.1-1.5-.9-.6.1-.6.1-.6 1 .1 1.5 1 1.5 1 .9 1.5 2.3 1.1 2.9.8.1-.6.4-1.1.7-1.3-2.2-.3-4.5-1.1-4.5-4.9 0-1.1.4-2 1-2.7-.1-.3-.4-1.3.1-2.7 0 0 .8-.3 2.7 1 .8-.2 1.6-.3 2.4-.3s1.6.1 2.4.3c1.9-1.3 2.7-1 2.7-1 .5 1.4.2 2.4.1 2.7.6.7 1 1.6 1 2.7 0 3.8-2.3 4.6-4.5 4.9.4.3.7.9.7 1.8v2.7c0 .3.2.6.7.5C23.1 24.2 26 20.4 26 16c0-5.5-4.5-10-10-10z" fill="#f0f6fc"/>
  
  <!-- RSS feed symbol overlay -->
  <g transform="translate(20, 20)">
    <!-- RSS circle -->
    <circle cx="3" cy="9" r="1.5" fill="#ff6600"/>
    <!-- RSS arc 1 -->
    <path d="M1 5c2.2 0 4 1.8 4 4" stroke="#ff6600" stroke-width="1.5" fill="none" stroke-linecap="round"/>
    <!-- RSS arc 2 -->
    <path d="M1 1c4.4 0 8 3.6 8 8" stroke="#ff6600" stroke-width="1.5" fill="none" stroke-linecap="round"/>
  </g>
</svg>