<svg xmlns="http://www.w3.org/2000/svg" viewBox="0 0 32 32" fill="none">
  <!-- Dark background circle -->
  <circle cx="16" cy="16" r="16" fill="#0d1117"/>
  
  <!-- GitHub octocat simplified - full size -->
  <path d="M16 2c-7.7 0-14 6.3-14 14 0 6.2 4 11.4 9.7 13.3.7.1 1-.3 1-.7v-2.4c-3.9.8-4.7-1.9-4.7-1.9-.7-1.7-1.6-2.1-1.6-2.1-1.3-.9.1-.9.1-.9 1.4.1 2.1 1.4 2.1 1.4 1.3 2.2 3.4 1.6 4.2 1.2.1-.9.5-1.6 1-1.9-3.2-.4-6.6-1.6-6.6-7.1 0-1.6.6-2.9 1.5-3.9-.2-.4-.7-1.9.1-4 0 0 1.2-.4 4 1.5 1.2-.3 2.4-.5 3.6-.5s2.4.2 3.6.5c2.8-1.9 4-1.5 4-1.5.8 2.1.3 3.6.1 4 1 1 1.5 2.3 1.5 3.9 0 5.5-3.4 6.7-6.6 7.1.5.5 1 1.4 1 2.8v4.1c0 .4.3.8 1 .7C26 27.4 30 22.2 30 16c0-7.7-6.3-14-14-14z" fill="#f0f6fc"/>
  
  <!-- RSS feed symbol overlay -->
  <g transform="translate(20, 20)">
    <!-- Background circle for RSS -->
    <circle cx="6" cy="6" r="6" fill="#ff6600" opacity="0.9"/>
    <!-- RSS circle -->
    <circle cx="4.5" cy="7.5" r="1.2" fill="#ffffff"/>
    <!-- RSS arc 1 -->
    <path d="M3 3.5c2.5 0 4.5 2 4.5 4.5" stroke="#ffffff" stroke-width="1.3" fill="none" stroke-linecap="round"/>
    <!-- RSS arc 2 -->
    <path d="M3 0c4.4 0 8 3.6 8 8" stroke="#ffffff" stroke-width="1.3" fill="none" stroke-linecap="round"/>
  </g>
</svg>